<svg width="73" height="70" viewBox="0 0 73 70" fill="none" xmlns="http://www.w3.org/2000/svg">
<path d="M22.1617 69.9905H2.20166C3.18166 68.3305 4.35166 67.4605 5.25166 65.5405C8.61166 58.3405 16.1817 37.5305 17.7217 30.0405C18.2717 27.3305 18.2917 24.7205 18.1717 21.9805C22.2917 21.9805 30.9717 22.6105 33.2017 26.4205C38.0017 34.5905 24.0017 60.4005 22.1617 69.9805V69.9905Z" fill="white"/>
<path d="M33.1316 54.9902C33.7116 52.9402 37.5916 40.5502 38.2516 40.1202C38.8416 39.7402 48.7616 39.6602 52.0916 38.4902C58.6316 36.1902 62.9216 27.1802 62.8516 20.4802C62.8116 16.6202 61.0016 14.3502 60.0916 11.4502C58.6416 6.80017 67.6716 14.1502 68.4516 15.0802C75.9916 23.9502 72.8316 39.4702 64.5516 46.9802C61.9316 49.3602 50.7316 54.9902 47.5916 54.9902H33.1216H33.1316Z" fill="white"/>
<path d="M54.1249 25.2949C50.1249 8.29489 -1.87507 31.7949 1.1249 2.7949C60.5415 -6.68921 61.8963 24.46 54.1249 25.2949Z" fill="#14B8A6" stroke="#14B8A6"/>
</svg>
