<svg width="72" height="69" viewBox="0 0 72 69" fill="none" xmlns="http://www.w3.org/2000/svg">
<path d="M21.1612 68.9905H1.20117C2.18117 67.3305 3.35117 66.4605 4.25117 64.5405C7.61117 57.3405 15.1812 36.5305 16.7212 29.0405C17.2712 26.3305 17.2912 23.7205 17.1712 20.9805C21.2912 20.9805 29.9712 21.6105 32.2012 25.4205C37.0012 33.5905 23.0012 59.4005 21.1612 68.9805V68.9905Z" fill="#292526"/>
<path d="M32.1311 53.9902C32.7111 51.9402 36.5911 39.5502 37.2511 39.1202C37.8411 38.7402 47.7611 38.6602 51.0911 37.4902C57.6311 35.1902 61.9211 26.1802 61.8511 19.4802C61.8111 15.6202 60.0011 13.3502 59.0911 10.4502C57.6411 5.80017 66.6711 13.1502 67.4511 14.0802C74.9911 22.9502 71.8311 38.4702 63.5511 45.9802C60.9311 48.3602 49.7311 53.9902 46.5911 53.9902H32.1211H32.1311Z" fill="#292526"/>
<path d="M53.1249 24.2949C49.1249 7.29489 -2.87507 30.7949 0.124899 1.7949C59.5415 -7.68921 60.8963 23.46 53.1249 24.2949Z" fill="#E12E31"/>
</svg>
