<svg width="414" height="91" viewBox="0 0 414 91" fill="none" xmlns="http://www.w3.org/2000/svg">
<circle cx="90" cy="62" r="8" fill="#14B8A6"/>
<circle cx="336" cy="32" r="8" fill="#14B8A6"/>
<path d="M381.332 69.99H359.382C361.332 66.58 362.102 62.46 362.412 58.53C363.272 47.48 363.062 30.63 362.412 19.46C362.192 15.7 361.012 11.71 360.372 8.01L379.332 1V65.5C379.332 66.29 381.182 68.79 381.332 70V69.99Z" fill="white"/>
<path d="M214.712 7.99023V61.4902C214.712 64.4502 221.792 68.7002 224.682 68.4802C219.782 72.3902 210.872 71.7602 205.782 68.4402C191.832 59.3402 198.562 33.2802 196.812 19.4302C196.542 17.2702 195.812 16.6502 194.762 15.0002L214.712 7.99023Z" fill="white"/>
<path d="M329.442 22.0005L321.472 27.4904C305.572 47.3405 329.642 71.4405 348.902 54.9905C349.512 59.1205 343.332 65.4705 339.752 67.8205C316.132 83.3205 288.722 53.8304 306.672 30.6604C311.832 24.0004 321.222 20.1705 329.442 22.0005Z" fill="white"/>
<path d="M261.602 21C261.402 22.62 259.382 22.36 258.132 24.01C249.042 36.01 252.952 57.26 269.332 59.75C276.112 60.78 277.442 58.79 282.912 56.81C288.382 54.83 281.942 63.27 280.072 64.98C270.402 73.78 254.302 73.34 245.112 64.03C229.902 48.63 239.812 21.66 261.612 21H261.602Z" fill="white"/>
<path d="M103.962 23.0006C103.022 25.0606 100.742 24.5206 100.132 27.7306C98.6417 35.6306 119.112 45.3906 124.462 50.9406C137.662 64.6406 119.332 72.8006 106.962 71.9706C108.772 69.6406 112.152 68.7806 112.792 65.2406C114.202 57.4006 95.9717 49.6506 90.5217 44.9506C75.4517 31.9506 88.7117 21.7306 103.962 22.9806V23.0006Z" fill="white"/>
<path d="M413.262 69.9905H391.312C392.332 67.8905 393.082 65.8605 393.312 63.4905C393.972 56.6005 394.152 40.2205 393.222 33.5805C392.992 31.9305 392.402 29.7405 391.352 28.4605C389.142 25.7505 380.452 25.9505 388.522 22.6905C393.712 20.5905 399.062 21.0605 404.002 23.7805C417.922 31.4405 406.902 58.0705 413.272 69.9905H413.262Z" fill="white"/>
<path d="M22.1617 69.9905H2.20166C3.18166 68.3305 4.35166 67.4605 5.25166 65.5405C8.61166 58.3405 16.1817 37.5305 17.7217 30.0405C18.2717 27.3305 18.2917 24.7205 18.1717 21.9805C22.2917 21.9805 30.9717 22.6105 33.2017 26.4205C38.0017 34.5905 24.0017 60.4005 22.1617 69.9805V69.9905Z" fill="white"/>
<path d="M156.352 21.9898C157.852 22.4198 170.572 47.0798 170.812 49.5898C171.322 54.8998 164.202 64.1298 163.822 69.9898L136.892 21.9898C142.002 22.9298 151.952 20.7198 156.352 21.9898Z" fill="white"/>
<path d="M33.1317 54.9902C33.7117 52.9402 37.5917 40.5502 38.2517 40.1202C38.8417 39.7402 48.7617 39.6602 52.0917 38.4902C58.6317 36.1902 62.9217 27.1802 62.8517 20.4802C62.8117 16.6202 61.0017 14.3502 60.0917 11.4502C58.6417 6.80017 67.6717 14.1502 68.4517 15.0802C75.9917 23.9502 72.8317 39.4702 64.5517 46.9802C61.9317 49.3602 50.7317 54.9902 47.5917 54.9902H33.1217H33.1317Z" fill="white"/>
<path d="M290.542 45.9906H261.612L273.632 42.3306C273.852 34.7606 271.152 27.3906 266.612 21.4806C280.412 19.4006 290.082 33.4506 290.552 45.9906H290.542Z" fill="white"/>
<path d="M20.1617 12.9902C25.6617 14.2302 31.4017 14.7802 37.4017 14.6302L38.1217 16.9902C39.6817 14.5202 41.5417 14.3302 43.1117 16.9902C44.7617 15.3202 45.7617 14.9802 46.1017 15.9902C46.5617 14.7302 47.6517 13.5302 49.0917 13.9902C51.5417 11.8702 53.1617 15.4002 52.0817 17.9902C54.4517 19.5202 52.7317 22.0502 50.0817 20.9902C43.5017 16.8302 26.2017 18.3802 18.1517 17.9902L20.1517 12.9902H20.1617Z" fill="#E42C32"/>
<path d="M124.922 21.9902V35.9902C122.022 33.4202 121.202 30.1402 117.962 27.4702C115.272 25.2602 111.832 24.8102 109.962 21.9902H124.932H124.922Z" fill="white"/>
<path d="M188.772 21.9902C188.972 24.8802 184.862 25.3202 182.792 27.5002C180.722 29.6802 179.752 32.5602 178.292 35.0002C177.652 30.0402 176.362 25.6402 172.802 21.9902H188.762H188.772Z" fill="white"/>
<path d="M228.672 30.9905C226.252 29.7005 224.802 27.1805 222.632 25.5605C220.742 24.1505 217.642 23.9005 216.712 22.0005C225.702 21.9805 230.262 19.6405 228.672 30.9905Z" fill="white"/>
<path d="M156 86C149 91.5 139.421 90.8724 137 82.5C142.416 80.3538 145.252 78.6888 150 75C150.936 80.5175 152.285 83.2717 156 86Z" fill="#14B8A6" stroke="#14B8A6"/>
<path d="M51.0917 10.99V11.99C51.6216 14.66 51.1516 14.75 49.0916 12.99C47.8716 13.81 46.8716 14.81 46.1016 15.99C45.0616 16.42 44.3117 16.83 43.1117 16.99C41.7817 15.44 42.5517 14.04 44.1117 12.99C42.2117 13.26 42.9117 10.52 43.5617 9.08998C43.8617 8.41998 44.3717 8.06998 45.1117 7.98998C47.1817 6.92998 50.0916 8.82998 51.1016 10.99H51.0917Z" fill="#E63230"/>
<path d="M41.1116 3.9904C42.5716 4.9904 43.0516 5.7504 41.1116 5.9904C41.7016 8.0804 39.2416 9.5104 38.1216 6.9904C37.7116 9.6604 36.9416 9.5204 36.1216 6.9904C32.7216 7.0704 32.9416 6.4404 36.1216 4.9904C36.3316 4.5904 36.7816 4.2904 37.1216 3.9904C38.3516 4.1604 40.0616 3.7204 41.1116 3.9904Z" fill="#DD332F"/>
<path d="M53.0916 12.9902C54.4216 15.5102 54.4216 17.1802 53.0916 17.9902H52.0916C52.0216 16.0202 50.8316 14.7502 49.1016 13.9902C48.2316 13.7102 48.2416 13.3702 49.1016 12.9902C49.7216 12.7202 50.9816 11.9902 51.1016 11.9902C51.2816 11.9902 52.8416 12.7702 53.1016 12.9902H53.0916Z" fill="#E32C2C"/>
<path d="M51.0916 10.9902C49.3616 9.16023 47.0316 8.89023 45.1016 7.99023C44.2016 6.86023 44.2016 6.20023 45.1016 5.99023C47.4416 7.07023 51.0116 7.73023 51.0916 10.9902Z" fill="#D64337"/>
<path d="M45.1017 5.99023C45.0017 6.63023 45.2417 7.44023 45.1017 7.99023C43.6017 9.32023 43.0117 8.68023 44.1017 6.99023C42.9517 8.18023 41.3117 7.62023 41.1117 5.99023V3.99023C42.7317 4.40023 43.8017 5.39023 45.1017 5.99023Z" fill="#E23433"/>
<path d="M96.9717 43.9903C97.0917 44.0903 97.3117 46.2303 97.9817 46.9803H94.9817C95.6817 45.8403 94.5317 41.9903 96.9717 43.9903Z" fill="white"/>
<path d="M68.0517 24.9898C71.7117 28.6098 59.3017 44.3798 53.0917 40.9798C53.5817 37.5998 57.7817 39.2998 58.6317 38.0098C59.1417 37.2298 58.2117 35.7098 58.6517 34.9498C59.0317 34.2898 60.7217 34.1198 61.1217 33.2898C62.0317 31.4198 62.8517 26.2298 64.0317 25.4598C64.8417 24.9298 67.7917 24.7298 68.0617 24.9998L68.0517 24.9898Z" fill="white"/>
<path d="M7.1917 4.99024C8.1517 5.45024 9.1517 6.12024 10.1817 6.99024C14.3717 6.37024 19.2117 5.97024 23.1517 6.99024C25.3817 7.87024 27.9017 7.84024 30.1317 6.99024C30.8717 5.34024 34.4117 6.32024 36.1217 6.99024C36.7717 6.92024 37.4717 7.07024 38.1217 6.99024C41.3217 6.86024 39.5217 10.6302 38.1217 11.9902L36.8717 14.0202C32.9317 14.8802 22.8617 15.1402 20.1617 11.9902C20.0217 11.9602 19.0917 11.2402 18.1617 10.9902C16.6717 9.52024 14.3417 8.86024 11.1817 8.99024C9.9817 9.05024 8.2917 9.16024 7.1917 8.99024C5.9117 10.8502 4.6517 10.1802 5.1917 7.99024C3.1517 8.55024 2.5817 7.25024 4.1917 5.99024C4.5617 5.72024 4.7817 4.34024 5.8417 4.15024C6.6817 4.00024 7.0917 4.99024 7.1917 4.99024Z" fill="#E32D30"/>
<path d="M38.1217 11.9905C39.6717 10.1105 40.3417 10.4505 40.1217 12.9905C42.0917 15.1505 40.5017 16.7305 38.1217 16.9905C37.5817 16.9705 36.1217 16.0705 34.6817 15.9805C29.1417 15.6505 23.2617 17.9805 20.1617 12.9905V11.9905C28.1617 13.4205 31.2917 12.0605 38.1217 11.9905Z" fill="#E72E2E"/>
<path d="M36.1217 4.99042C35.8317 5.52042 35.5317 6.03042 35.1517 6.49042L36.1217 6.99042C32.7017 7.38042 32.5117 6.97042 30.1317 6.99042C27.8717 7.86042 25.3817 7.88042 23.1517 6.99042C18.8417 6.86042 14.4917 7.08042 10.1817 6.99042L9.91174 5.91042C14.0017 5.68042 18.0817 5.37042 22.1517 4.99042C22.2217 4.99042 22.6417 4.31042 23.4217 4.32042C27.3217 4.35042 32.0617 6.17042 36.1117 4.99042H36.1217Z" fill="#E6302C"/>
<path d="M11.1816 8.99018C13.0116 8.90018 17.2116 6.92018 20.1616 8.00018L18.1616 10.9902C16.0816 10.4302 13.3116 10.9902 11.1816 8.99018Z" fill="#E72C32"/>
<path d="M22.1616 4.99007C19.9316 6.97007 15.6816 5.76007 12.6016 5.95007C11.2716 6.03007 10.5216 6.94007 10.1916 6.99007C7.89164 7.37007 6.69164 7.36007 7.20164 4.99007C12.1716 4.96007 17.1916 4.92007 22.1716 4.99007H22.1616Z" fill="#E22E2B"/>
<path d="M18.1716 11.9902C19.2116 16.5202 14.5016 16.2302 13.1816 12.4802L18.1716 11.9902Z" fill="#DD332B"/>
<path d="M7.19174 8.99011C9.31174 12.0801 5.49174 13.1301 3.20174 9.99011C2.28174 8.03011 3.25174 6.76011 5.20174 7.99011C5.79174 8.27011 6.77174 8.92011 7.20174 8.99011H7.19174Z" fill="#E03029"/>
<path d="M4.20174 5.99023C4.73174 6.45023 4.55174 7.68023 5.20174 7.99023L3.20174 9.99023C-0.11826 5.44023 3.57174 6.45023 4.20174 5.99023Z" fill="#DE2E28"/>
<path d="M44.1116 12.9904C44.0816 13.2304 45.7616 15.0904 43.1116 16.9904C41.6616 17.1804 39.6616 17.0404 38.1216 16.9904C38.0016 15.3504 39.7816 14.0704 40.1216 12.9904C40.7016 11.5004 43.6216 11.1904 44.1116 12.9904Z" fill="#E4302A"/>
<path d="M49.0916 12.9902V13.9902C48.0516 14.4702 47.0916 15.5802 46.1016 15.9902C45.9516 13.0802 47.5416 13.6702 49.0916 12.9902Z" fill="#DC2D2F"/>
<path d="M45.1017 7.9907C44.5917 10.0007 44.3417 10.7707 44.1017 12.9907C42.8117 12.8707 41.3717 13.1607 40.1117 12.9907C38.9417 12.1407 38.5817 11.3507 40.1117 10.9907C41.7317 10.2007 42.4017 9.5407 42.1117 8.9907C41.2017 7.1807 42.2117 6.3507 44.1117 6.9907C44.4117 7.1107 44.7217 7.8107 45.1117 7.9907H45.1017Z" fill="#E12F31"/>
<path d="M44.1117 6.9904C43.4817 7.6504 42.9017 8.5104 42.1117 8.9904C41.8917 10.0204 41.2317 10.6904 40.1117 10.9904C39.9317 11.5004 40.2817 12.4404 40.1117 12.9904C39.2117 12.8704 38.2317 11.9904 38.1117 11.9904V6.9904C39.5817 6.8104 40.9517 6.0004 41.1017 5.9904C43.3817 5.8404 43.1817 6.6304 44.0917 6.9904H44.1117Z" fill="#E82C31"/>
<path d="M30.1417 6.99023C28.8817 8.64023 24.4217 8.64023 23.1617 6.99023C25.4817 7.06023 27.8317 7.01023 30.1417 6.99023Z" fill="#E02C2E"/>
<path d="M42.1117 8.99019L43.1117 10.9802H40.1217C41.6117 6.81019 41.7117 9.24019 42.1217 8.99019H42.1117Z" fill="#DA3232"/>
<path d="M54.1249 25.2949C50.1249 8.29489 -1.87507 31.7949 1.1249 2.7949C60.5415 -6.68921 61.8963 24.46 54.1249 25.2949Z" fill="#14B8A6" stroke="#14B8A6"/>
</svg>
